<svg width="620" height="637" viewBox="0 0 620 637" xmlns="http://www.w3.org/2000/svg">
<style>text { font-family: ui-monospace, "Cascadia Code", "SFMono-Regular", Consolas, "Liberation Mono", Menlo, monospace; }</style>
<rect x="0.5" y="0.5" width="619" height="636" rx="10" fill="#0d1117" stroke="#30363d"/>
<text x="24" y="28" fill="#58a6ff" font-size="11" letter-spacing="2" font-weight="bold">CONTRIBUTIONS</text>
<text x="24" y="62" fill="#e6edf3" font-size="40" font-weight="700">815</text>
<text x="24" y="80" fill="#8b949e" font-size="12">contributions, past year</text>
<text x="596" y="40" fill="#e6edf3" font-size="19" font-weight="700" text-anchor="end">120</text>
<text x="596" y="56" fill="#8b949e" font-size="11" text-anchor="end">active days</text>
<text x="596" y="80" fill="#e6edf3" font-size="19" font-weight="700" text-anchor="end">87</text>
<text x="596" y="96" fill="#8b949e" font-size="11" text-anchor="end">best week</text>
<path d="M24.0 190.0L24.0 190.0L35.0 188.7L46.0 190.0L57.0 190.0L68.0 190.0L79.0 190.0L90.0 190.0L101.0 190.0L112.0 190.0L123.0 190.0L134.0 190.0L145.0 190.0L156.0 190.0L167.0 190.0L178.0 190.0L189.0 190.0L200.0 188.1L211.0 190.0L222.0 190.0L233.0 190.0L244.0 190.0L255.0 190.0L266.0 190.0L277.0 190.0L288.0 184.9L299.0 159.7L310.0 134.0L321.0 182.9L332.0 183.6L343.0 170.0L354.0 170.7L365.0 174.6L376.0 175.2L387.0 160.4L398.0 175.8L409.0 189.4L420.0 184.2L431.0 182.3L442.0 141.1L453.0 165.5L464.0 180.3L475.0 170.7L486.0 164.3L497.0 183.6L508.0 172.0L519.0 177.8L530.0 175.8L541.0 182.3L552.0 181.6L563.0 171.3L574.0 182.9L585.0 152.0L596.0 159.7L596.0 190.0Z" fill="#58a6ff" fill-opacity="0.15"/>
<path d="M24.0 190.0L35.0 188.7L46.0 190.0L57.0 190.0L68.0 190.0L79.0 190.0L90.0 190.0L101.0 190.0L112.0 190.0L123.0 190.0L134.0 190.0L145.0 190.0L156.0 190.0L167.0 190.0L178.0 190.0L189.0 190.0L200.0 188.1L211.0 190.0L222.0 190.0L233.0 190.0L244.0 190.0L255.0 190.0L266.0 190.0L277.0 190.0L288.0 184.9L299.0 159.7L310.0 134.0L321.0 182.9L332.0 183.6L343.0 170.0L354.0 170.7L365.0 174.6L376.0 175.2L387.0 160.4L398.0 175.8L409.0 189.4L420.0 184.2L431.0 182.3L442.0 141.1L453.0 165.5L464.0 180.3L475.0 170.7L486.0 164.3L497.0 183.6L508.0 172.0L519.0 177.8L530.0 175.8L541.0 182.3L552.0 181.6L563.0 171.3L574.0 182.9L585.0 152.0L596.0 159.7" fill="none" stroke="#58a6ff" stroke-width="2" stroke-linejoin="round" stroke-linecap="round"/>
<circle cx="596.0" cy="159.7" r="3.5" fill="#0d1117" stroke="#58a6ff" stroke-width="2"/>
<text x="24" y="212" fill="#8b949e" font-size="12">current streak 15 days  ·  longest streak 15 days</text>
<line x1="24" y1="232" x2="596" y2="232" stroke="#30363d"/>
<text x="24" y="262" fill="#58a6ff" font-size="11" letter-spacing="2" font-weight="bold">TOP LANGUAGES</text>
<text x="24" y="292" fill="#e6edf3" font-size="13">Python</text>
<rect x="204" y="281" width="342" height="10" rx="2" fill="#8b949e" fill-opacity="0.25"/>
<rect x="204" y="281" width="208.6" height="10" rx="2" fill="#3572A5"/>
<text x="596" y="292" fill="#8b949e" font-size="12" text-anchor="end">61.0%</text>
<text x="24" y="316" fill="#e6edf3" font-size="13">TypeScript</text>
<rect x="204" y="305" width="342" height="10" rx="2" fill="#8b949e" fill-opacity="0.25"/>
<rect x="204" y="305" width="91.3" height="10" rx="2" fill="#3178c6"/>
<text x="596" y="316" fill="#8b949e" font-size="12" text-anchor="end">26.7%</text>
<text x="24" y="340" fill="#e6edf3" font-size="13">Jupyter Notebook</text>
<rect x="204" y="329" width="342" height="10" rx="2" fill="#8b949e" fill-opacity="0.25"/>
<rect x="204" y="329" width="13.4" height="10" rx="2" fill="#DA5B0B"/>
<text x="596" y="340" fill="#8b949e" font-size="12" text-anchor="end">3.9%</text>
<text x="24" y="364" fill="#e6edf3" font-size="13">Verilog</text>
<rect x="204" y="353" width="342" height="10" rx="2" fill="#8b949e" fill-opacity="0.25"/>
<rect x="204" y="353" width="9.3" height="10" rx="2" fill="#b2b7f8"/>
<text x="596" y="364" fill="#8b949e" font-size="12" text-anchor="end">2.7%</text>
<text x="24" y="388" fill="#e6edf3" font-size="13">TeX</text>
<rect x="204" y="377" width="342" height="10" rx="2" fill="#8b949e" fill-opacity="0.25"/>
<rect x="204" y="377" width="6.3" height="10" rx="2" fill="#3D6117"/>
<text x="596" y="388" fill="#8b949e" font-size="12" text-anchor="end">1.8%</text>
<text x="24" y="412" fill="#e6edf3" font-size="13">JavaScript</text>
<rect x="204" y="401" width="342" height="10" rx="2" fill="#8b949e" fill-opacity="0.25"/>
<rect x="204" y="401" width="4.0" height="10" rx="2" fill="#f1e05a"/>
<text x="596" y="412" fill="#8b949e" font-size="12" text-anchor="end">1.2%</text>
<line x1="24" y1="448" x2="596" y2="448" stroke="#30363d"/>
<text x="24" y="478" fill="#58a6ff" font-size="11" letter-spacing="2" font-weight="bold">THE LAST YEAR</text>
<text x="24" y="504" fill="#58a6ff" font-size="13" xml:space="preserve" style="letter-spacing:1px">                         :+: : ::+: :  :: :   :  : ::</text>
<text x="24" y="519" fill="#58a6ff" font-size="13" xml:space="preserve" style="letter-spacing:1px">                          :: :: ::::   :  ::  :: : ::</text>
<text x="24" y="534" fill="#58a6ff" font-size="13" xml:space="preserve" style="letter-spacing:1px">                          +  : : :      ::::   ::::::</text>
<text x="24" y="549" fill="#58a6ff" font-size="13" xml:space="preserve" style="letter-spacing:1px"> :                       :  : :::   : : : ::: :::: :#</text>
<text x="24" y="564" fill="#58a6ff" font-size="13" xml:space="preserve" style="letter-spacing:1px">                :        :# ::  :::  :+: +: :::::::::</text>
<text x="24" y="579" fill="#58a6ff" font-size="13" xml:space="preserve" style="letter-spacing:1px">                         #::  : :::  :@  :: : : :::: </text>
<text x="24" y="594" fill="#58a6ff" font-size="13" xml:space="preserve" style="letter-spacing:1px">                        : ::::::: : :::#     :  : :: </text>
<text x="24" y="617" fill="#8b949e" font-size="11">one character per day, quiet ':' to loud '@'</text></svg>
